<svg width="1280" height="720" xmlns="http://www.w3.org/2000/svg" xmlns:xlink="http://www.w3.org/1999/xlink" overflow="hidden"><defs><clipPath id="clip0"><rect x="0" y="0" width="1280" height="720"/></clipPath></defs><g clip-path="url(#clip0)"><rect x="0" y="0" width="1280" height="720" fill="#FFFFFF"/><rect x="497.5" y="248.5" width="286" height="224" stroke="#000000" stroke-width="3" stroke-miterlimit="8" fill="#FFFFFF"/><text font-family="Adobe Devanagari,Adobe Devanagari_MSFontService,sans-serif" font-weight="400" font-size="48" transform="translate(530.5 368)">COMPILER</text><path d="M350.5 365 463.818 365 463.818 368 350.5 368ZM462.318 362 471.318 366.5 462.318 371Z"/><path d="M0.000641617-1.5 112.277-1.45197 112.275 1.54803-0.000641617 1.5ZM110.778-4.45262 119.776 0.0512336 110.774 4.54738Z" transform="matrix(1 0 0 -1 809.5 368.551)"/><rect x="37.5001" y="248.5" width="286" height="224" stroke="#000000" stroke-width="3" stroke-miterlimit="8" fill="#FFFFFF"/><text font-family="Adobe Devanagari,Adobe Devanagari_MSFontService,sans-serif" font-weight="400" font-size="48" transform="translate(95.4166 339)">SOURCE <tspan font-size="48" x="24.5867" y="58">CODE</tspan></text><rect x="949.5" y="251.5" width="286" height="224" stroke="#000000" stroke-width="3" stroke-miterlimit="8" fill="#FFFFFF"/><text font-family="Adobe Devanagari,Adobe Devanagari_MSFontService,sans-serif" font-weight="400" font-size="48" transform="translate(1014.17 342)">OBJECT <tspan font-size="48" x="17.8334" y="58">CODE</tspan></text></g></svg>