<svg width="1280" height="720" xmlns="http://www.w3.org/2000/svg" xmlns:xlink="http://www.w3.org/1999/xlink" overflow="hidden"><defs><clipPath id="clip0"><rect x="0" y="0" width="1280" height="720"/></clipPath></defs><g clip-path="url(#clip0)"><rect x="0" y="0" width="1280" height="720" fill="#FFFFFF"/><rect x="25.5001" y="34.5001" width="1230" height="660" stroke="#000000" stroke-width="3" stroke-miterlimit="8" fill="#FFFFFF"/><rect x="75.5001" y="75.5001" width="350" height="578" stroke="#000000" stroke-width="3" stroke-miterlimit="8" fill="#FFFFFF"/><text font-family="Times New Roman,Times New Roman_MSFontService,sans-serif" font-weight="400" font-size="27" transform="translate(232.25 630)">I/O</text><rect x="876.5" y="75.5001" width="351" height="578" stroke="#000000" stroke-width="3" stroke-miterlimit="8" fill="#FFFFFF"/><text font-family="Times New Roman,Times New Roman_MSFontService,sans-serif" font-weight="400" font-size="27" transform="translate(974.833 630)">PROCESSOR</text><rect x="501.5" y="244.5" width="284" height="231" stroke="#000000" stroke-width="3" stroke-miterlimit="8" fill="#FFFFFF"/><text font-family="Times New Roman,Times New Roman_MSFontService,sans-serif" font-weight="400" font-size="27" transform="translate(516.75 353)">INTERCONNECTION<tspan font-size="27" x="59.42" y="32">NETWORK</tspan></text><rect x="498.5" y="77.5001" width="284" height="81" stroke="#000000" stroke-width="3" stroke-miterlimit="8" fill="#FFFFFF"/><text font-family="Times New Roman,Times New Roman_MSFontService,sans-serif" font-weight="400" font-size="27" transform="translate(545.897 127)">MEMORY UNIT</text><rect x="108.5" y="128.5" width="277" height="215" stroke="#000000" stroke-width="3" stroke-miterlimit="8" fill="#FFFFFF"/><text font-family="Times New Roman,Times New Roman_MSFontService,sans-serif" font-weight="400" font-size="27" transform="translate(207.333 245)">INPUT</text><rect x="111.5" y="380.5" width="277" height="215" stroke="#000000" stroke-width="3" stroke-miterlimit="8" fill="#FFFFFF"/><text font-family="Times New Roman,Times New Roman_MSFontService,sans-serif" font-weight="400" font-size="27" transform="translate(196.583 497)">OUTPUT</text><rect x="912.5" y="117.5" width="277" height="215" stroke="#000000" stroke-width="3" stroke-miterlimit="8" fill="#FFFFFF"/><text font-family="Times New Roman,Times New Roman_MSFontService,sans-serif" font-weight="400" font-size="27" transform="translate(968.337 203)">ARITHMETIC<tspan font-size="27" x="53.3333" y="32">AND</tspan><tspan font-size="27" x="-11.0934" y="64">LOGICAL UNIT</tspan></text><rect x="915.5" y="369.5" width="277" height="215" stroke="#000000" stroke-width="3" stroke-miterlimit="8" fill="#FFFFFF"/><text font-family="Times New Roman,Times New Roman_MSFontService,sans-serif" font-weight="400" font-size="27" transform="translate(990.167 471)">CONTROL<tspan font-size="27" x="31.2466" y="32">UNIT</tspan></text><path d="M640.5 158.5 640.5 158.5" stroke="#000000" stroke-width="3" stroke-miterlimit="8" fill="none" fill-rule="evenodd"/><path d="M425.5 364.5 498.167 364.5" stroke="#000000" stroke-width="3" stroke-miterlimit="8" fill="none" fill-rule="evenodd"/><path d="M785.5 359.5 876.5 359.5" stroke="#000000" stroke-width="3" stroke-miterlimit="8" fill="none" fill-rule="evenodd"/><path d="M640.5 158.5 640.5 244.5" stroke="#000000" stroke-width="3" stroke-miterlimit="8" fill="none" fill-rule="evenodd"/></g></svg>